# xmcd
#
# Track frame offsets:
#	150
#	19306
#	37720
#	60073
#	76654
#	91202
#	105906
#	125537
#	145766
#	159936
#
# Disc length: 2326 seconds
#
# Revision: 0
# Processed by: cddbd v1.5.2PL0 Copyright (c) Steve Scherf et al.
# Submitted via: EZCDAudioConverter 3.0.7.1
#
DISCID=6009140a
DTITLE=The Hound Kings  - Unleashed
DYEAR=2013
DGENRE=Blues
TTITLE0=Ssi Blues
TTITLE1=Drunk Honey Bee
TTITLE2=Come Go Home With Me
TTITLE3=The Real McCoy
TTITLE4=Don't Drag My Love Down
TTITLE5=\n	\nRecession Blues\n\n	\nRecession Blues\n
TTITLE6=The Thang
TTITLE7=You Got Issues
TTITLE8=\n	\nYou Gotta Move\n
TTITLE9=Red Light
EXTD=
EXTT0=
EXTT1=
EXTT2=
EXTT3=
EXTT4=
EXTT5=
EXTT6=
EXTT7=
EXTT8=
EXTT9=
PLAYORDER=
